<mxfile host="app.diagrams.net" agent="Mozilla/5.0 (Windows NT 10.0; Win64; x64) AppleWebKit/537.36 (KHTML, like Gecko) Chrome/129.0.0.0 Safari/537.36 Edg/129.0.0.0" version="24.7.16" pages="6">
  <diagram name="Home page" id="2cc2dc42-3aac-f2a9-1cec-7a8b7cbee084">
    <mxGraphModel dx="1666" dy="747" grid="1" gridSize="10" guides="1" tooltips="1" connect="1" arrows="1" fold="1" page="1" pageScale="1" pageWidth="1100" pageHeight="850" background="none" math="0" shadow="0">
      <root>
        <mxCell id="0" />
        <mxCell id="1" parent="0" />
        <mxCell id="7026571954dc6520-1" value="" style="strokeWidth=1;shadow=0;dashed=0;align=center;html=1;shape=mxgraph.mockup.containers.browserWindow;rSize=0;strokeColor=#666666;mainText=,;recursiveResize=0;rounded=0;labelBackgroundColor=none;fontFamily=Verdana;fontSize=12" parent="1" vertex="1">
          <mxGeometry x="30" y="20" width="1050" height="820" as="geometry" />
        </mxCell>
        <mxCell id="7026571954dc6520-2" value="Home" style="strokeWidth=1;shadow=0;dashed=0;align=center;html=1;shape=mxgraph.mockup.containers.anchor;fontSize=17;fontColor=#666666;align=left;" parent="7026571954dc6520-1" vertex="1">
          <mxGeometry x="60" y="12" width="110" height="26" as="geometry" />
        </mxCell>
        <mxCell id="7026571954dc6520-3" value="https://www.default.com/home" style="strokeWidth=1;shadow=0;dashed=0;align=center;html=1;shape=mxgraph.mockup.containers.anchor;rSize=0;fontSize=17;fontColor=#666666;align=left;" parent="7026571954dc6520-1" vertex="1">
          <mxGeometry x="130" y="60" width="250" height="26" as="geometry" />
        </mxCell>
        <mxCell id="7026571954dc6520-4" value="Home Page" style="text;html=1;points=[];align=left;verticalAlign=top;spacingTop=-4;fontSize=30;fontFamily=Verdana" parent="7026571954dc6520-1" vertex="1">
          <mxGeometry x="30" y="140" width="340" height="50" as="geometry" />
        </mxCell>
        <mxCell id="7026571954dc6520-15" value="" style="verticalLabelPosition=bottom;shadow=0;dashed=0;align=center;html=1;verticalAlign=top;strokeWidth=1;shape=mxgraph.mockup.markup.line;strokeColor=#999999;rounded=0;labelBackgroundColor=none;fillColor=#ffffff;fontFamily=Verdana;fontSize=12;fontColor=#000000;" parent="7026571954dc6520-1" vertex="1">
          <mxGeometry y="200" width="1050" height="20" as="geometry" />
        </mxCell>
        <mxCell id="Br3FT2EpSXoQBTrajOmK-1" value="" style="verticalLabelPosition=bottom;shadow=0;dashed=0;align=center;html=1;verticalAlign=top;strokeWidth=1;shape=mxgraph.mockup.containers.userMale;strokeColor=#666666;strokeColor2=#008cff;" vertex="1" parent="7026571954dc6520-1">
          <mxGeometry x="990" y="110" width="60" height="50" as="geometry" />
        </mxCell>
        <mxCell id="Br3FT2EpSXoQBTrajOmK-16" value="Please sign in to see your home page" style="text;html=1;align=center;verticalAlign=middle;whiteSpace=wrap;rounded=0;" vertex="1" parent="7026571954dc6520-1">
          <mxGeometry x="30" y="240" width="210" height="30" as="geometry" />
        </mxCell>
        <mxCell id="Br3FT2EpSXoQBTrajOmK-18" value="University News" style="rounded=1;whiteSpace=wrap;html=1;" vertex="1" parent="7026571954dc6520-1">
          <mxGeometry x="30" y="330" width="260" height="150" as="geometry" />
        </mxCell>
        <mxCell id="Br3FT2EpSXoQBTrajOmK-19" value="What&#39;s on" style="rounded=1;whiteSpace=wrap;html=1;" vertex="1" parent="7026571954dc6520-1">
          <mxGeometry x="320" y="330" width="260" height="150" as="geometry" />
        </mxCell>
        <mxCell id="Br3FT2EpSXoQBTrajOmK-20" value="Restaurant" style="rounded=1;whiteSpace=wrap;html=1;" vertex="1" parent="7026571954dc6520-1">
          <mxGeometry x="610" y="330" width="260" height="150" as="geometry" />
        </mxCell>
        <mxCell id="Br3FT2EpSXoQBTrajOmK-21" value="Library Links" style="rounded=1;whiteSpace=wrap;html=1;" vertex="1" parent="7026571954dc6520-1">
          <mxGeometry x="30" y="520" width="260" height="130" as="geometry" />
        </mxCell>
        <mxCell id="Br3FT2EpSXoQBTrajOmK-3" value="" style="strokeWidth=1;shadow=0;dashed=0;align=center;html=1;shape=mxgraph.mockup.forms.rrect;rSize=0;strokeColor=#999999;fillColor=#ffffff;" vertex="1" parent="7026571954dc6520-1">
          <mxGeometry x="850" y="160" width="200" height="300" as="geometry" />
        </mxCell>
        <mxCell id="Br3FT2EpSXoQBTrajOmK-4" value="Sign In" style="strokeWidth=1;shadow=0;dashed=0;align=center;html=1;shape=mxgraph.mockup.forms.anchor;fontSize=12;fontColor=#666666;align=left;resizeWidth=1;spacingLeft=0;" vertex="1" parent="Br3FT2EpSXoQBTrajOmK-3">
          <mxGeometry width="100" height="20" relative="1" as="geometry">
            <mxPoint x="10" y="10" as="offset" />
          </mxGeometry>
        </mxCell>
        <mxCell id="Br3FT2EpSXoQBTrajOmK-5" value="" style="shape=line;strokeColor=#ddeeff;strokeWidth=2;html=1;resizeWidth=1;" vertex="1" parent="Br3FT2EpSXoQBTrajOmK-3">
          <mxGeometry width="180" height="10" relative="1" as="geometry">
            <mxPoint x="10" y="30" as="offset" />
          </mxGeometry>
        </mxCell>
        <mxCell id="Br3FT2EpSXoQBTrajOmK-6" value="User Name:" style="strokeWidth=1;shadow=0;dashed=0;align=center;html=1;shape=mxgraph.mockup.forms.anchor;fontSize=12;fontColor=#666666;align=left;resizeWidth=1;spacingLeft=0;" vertex="1" parent="Br3FT2EpSXoQBTrajOmK-3">
          <mxGeometry width="100" height="20" relative="1" as="geometry">
            <mxPoint x="10" y="40" as="offset" />
          </mxGeometry>
        </mxCell>
        <mxCell id="Br3FT2EpSXoQBTrajOmK-7" value="johndoe" style="strokeWidth=1;shadow=0;dashed=0;align=center;html=1;shape=mxgraph.mockup.forms.rrect;rSize=0;strokeColor=#999999;fontColor=#666666;align=left;spacingLeft=5;resizeWidth=1;" vertex="1" parent="Br3FT2EpSXoQBTrajOmK-3">
          <mxGeometry width="150" height="25" relative="1" as="geometry">
            <mxPoint x="10" y="60" as="offset" />
          </mxGeometry>
        </mxCell>
        <mxCell id="Br3FT2EpSXoQBTrajOmK-8" value="Password:" style="strokeWidth=1;shadow=0;dashed=0;align=center;html=1;shape=mxgraph.mockup.forms.anchor;fontSize=12;fontColor=#666666;align=left;resizeWidth=1;spacingLeft=0;" vertex="1" parent="Br3FT2EpSXoQBTrajOmK-3">
          <mxGeometry width="100" height="20" relative="1" as="geometry">
            <mxPoint x="10" y="95" as="offset" />
          </mxGeometry>
        </mxCell>
        <mxCell id="Br3FT2EpSXoQBTrajOmK-9" value="********" style="strokeWidth=1;shadow=0;dashed=0;align=center;html=1;shape=mxgraph.mockup.forms.rrect;rSize=0;strokeColor=#999999;fontColor=#666666;align=left;spacingLeft=5;resizeWidth=1;" vertex="1" parent="Br3FT2EpSXoQBTrajOmK-3">
          <mxGeometry width="150" height="25" relative="1" as="geometry">
            <mxPoint x="10" y="115" as="offset" />
          </mxGeometry>
        </mxCell>
        <mxCell id="Br3FT2EpSXoQBTrajOmK-10" value="SIGN IN" style="strokeWidth=1;shadow=0;dashed=0;align=center;html=1;shape=mxgraph.mockup.forms.rrect;rSize=5;strokeColor=none;fontColor=#ffffff;fillColor=#66bbff;fontSize=16;fontStyle=1;" vertex="1" parent="Br3FT2EpSXoQBTrajOmK-3">
          <mxGeometry y="1" width="80" height="30" relative="1" as="geometry">
            <mxPoint x="20" y="-150" as="offset" />
          </mxGeometry>
        </mxCell>
        <mxCell id="Br3FT2EpSXoQBTrajOmK-11" value="Forgot Password?" style="strokeWidth=1;shadow=0;dashed=0;align=center;html=1;shape=mxgraph.mockup.forms.anchor;fontSize=12;fontColor=#9999ff;align=left;spacingLeft=0;fontStyle=4;resizeWidth=1;" vertex="1" parent="Br3FT2EpSXoQBTrajOmK-3">
          <mxGeometry y="1" width="150" height="20" relative="1" as="geometry">
            <mxPoint x="10" y="-110" as="offset" />
          </mxGeometry>
        </mxCell>
        <mxCell id="Br3FT2EpSXoQBTrajOmK-12" value="" style="shape=line;strokeColor=#ddeeff;strokeWidth=2;html=1;resizeWidth=1;" vertex="1" parent="Br3FT2EpSXoQBTrajOmK-3">
          <mxGeometry y="1" width="180" height="10" relative="1" as="geometry">
            <mxPoint x="10" y="-90" as="offset" />
          </mxGeometry>
        </mxCell>
        <mxCell id="Br3FT2EpSXoQBTrajOmK-13" value="New User" style="strokeWidth=1;shadow=0;dashed=0;align=center;html=1;shape=mxgraph.mockup.forms.anchor;fontSize=12;fontColor=#666666;align=left;spacingLeft=0;resizeWidth=1;" vertex="1" parent="Br3FT2EpSXoQBTrajOmK-3">
          <mxGeometry y="1" width="150" height="20" relative="1" as="geometry">
            <mxPoint x="10" y="-70" as="offset" />
          </mxGeometry>
        </mxCell>
        <mxCell id="Br3FT2EpSXoQBTrajOmK-14" value="SIGN UP" style="strokeWidth=1;shadow=0;dashed=0;align=center;html=1;shape=mxgraph.mockup.forms.rrect;rSize=5;strokeColor=none;fontColor=#ffffff;fillColor=#66bbff;fontSize=16;fontStyle=1;" vertex="1" parent="Br3FT2EpSXoQBTrajOmK-3">
          <mxGeometry y="1" width="80" height="30" relative="1" as="geometry">
            <mxPoint x="20" y="-50" as="offset" />
          </mxGeometry>
        </mxCell>
        <mxCell id="Br3FT2EpSXoQBTrajOmK-22" value="Help Zone" style="rounded=1;whiteSpace=wrap;html=1;" vertex="1" parent="7026571954dc6520-1">
          <mxGeometry x="320" y="520" width="260" height="130" as="geometry" />
        </mxCell>
        <mxCell id="Br3FT2EpSXoQBTrajOmK-23" value="Equipment hire" style="rounded=1;whiteSpace=wrap;html=1;" vertex="1" parent="7026571954dc6520-1">
          <mxGeometry x="610" y="520" width="260" height="130" as="geometry" />
        </mxCell>
      </root>
    </mxGraphModel>
  </diagram>
  <diagram id="SG72ippzAXYGKkBExxVn" name="Student Home">
    <mxGraphModel dx="1666" dy="747" grid="1" gridSize="10" guides="1" tooltips="1" connect="1" arrows="1" fold="1" page="1" pageScale="1" pageWidth="827" pageHeight="1169" math="0" shadow="0">
      <root>
        <mxCell id="0" />
        <mxCell id="1" parent="0" />
        <mxCell id="vubs-H2cISsxrIheDBED-1" value="" style="strokeWidth=1;shadow=0;dashed=0;align=center;html=1;shape=mxgraph.mockup.containers.browserWindow;rSize=0;strokeColor=#666666;mainText=,;recursiveResize=0;rounded=0;labelBackgroundColor=none;fontFamily=Verdana;fontSize=12" vertex="1" parent="1">
          <mxGeometry x="30" y="20" width="1050" height="820" as="geometry" />
        </mxCell>
        <mxCell id="vubs-H2cISsxrIheDBED-2" value="Home" style="strokeWidth=1;shadow=0;dashed=0;align=center;html=1;shape=mxgraph.mockup.containers.anchor;fontSize=17;fontColor=#666666;align=left;" vertex="1" parent="vubs-H2cISsxrIheDBED-1">
          <mxGeometry x="60" y="12" width="110" height="26" as="geometry" />
        </mxCell>
        <mxCell id="vubs-H2cISsxrIheDBED-3" value="https://www.default.com/home" style="strokeWidth=1;shadow=0;dashed=0;align=center;html=1;shape=mxgraph.mockup.containers.anchor;rSize=0;fontSize=17;fontColor=#666666;align=left;" vertex="1" parent="vubs-H2cISsxrIheDBED-1">
          <mxGeometry x="130" y="60" width="250" height="26" as="geometry" />
        </mxCell>
        <mxCell id="vubs-H2cISsxrIheDBED-4" value="Student Home Page" style="text;html=1;points=[];align=left;verticalAlign=top;spacingTop=-4;fontSize=30;fontFamily=Verdana" vertex="1" parent="vubs-H2cISsxrIheDBED-1">
          <mxGeometry x="30" y="140" width="340" height="50" as="geometry" />
        </mxCell>
        <mxCell id="vubs-H2cISsxrIheDBED-5" value="" style="verticalLabelPosition=bottom;shadow=0;dashed=0;align=center;html=1;verticalAlign=top;strokeWidth=1;shape=mxgraph.mockup.markup.line;strokeColor=#999999;rounded=0;labelBackgroundColor=none;fillColor=#ffffff;fontFamily=Verdana;fontSize=12;fontColor=#000000;" vertex="1" parent="vubs-H2cISsxrIheDBED-1">
          <mxGeometry y="200" width="1050" height="20" as="geometry" />
        </mxCell>
        <mxCell id="vubs-H2cISsxrIheDBED-6" value="" style="verticalLabelPosition=bottom;shadow=0;dashed=0;align=center;html=1;verticalAlign=top;strokeWidth=1;shape=mxgraph.mockup.containers.userMale;strokeColor=#666666;strokeColor2=#008cff;" vertex="1" parent="vubs-H2cISsxrIheDBED-1">
          <mxGeometry x="990" y="110" width="60" height="50" as="geometry" />
        </mxCell>
        <mxCell id="vubs-H2cISsxrIheDBED-8" value="Enrolment" style="rounded=1;whiteSpace=wrap;html=1;" vertex="1" parent="vubs-H2cISsxrIheDBED-1">
          <mxGeometry x="30" y="330" width="260" height="150" as="geometry" />
        </mxCell>
        <mxCell id="vubs-H2cISsxrIheDBED-9" value="Module Registration" style="rounded=1;whiteSpace=wrap;html=1;" vertex="1" parent="vubs-H2cISsxrIheDBED-1">
          <mxGeometry x="320" y="330" width="260" height="150" as="geometry" />
        </mxCell>
        <mxCell id="vubs-H2cISsxrIheDBED-10" value="Module Results" style="rounded=1;whiteSpace=wrap;html=1;" vertex="1" parent="vubs-H2cISsxrIheDBED-1">
          <mxGeometry x="610" y="330" width="260" height="150" as="geometry" />
        </mxCell>
        <mxCell id="vubs-H2cISsxrIheDBED-11" value="Timetable" style="rounded=1;whiteSpace=wrap;html=1;" vertex="1" parent="vubs-H2cISsxrIheDBED-1">
          <mxGeometry x="30" y="520" width="260" height="130" as="geometry" />
        </mxCell>
        <mxCell id="vubs-H2cISsxrIheDBED-24" value="Help Zone" style="rounded=1;whiteSpace=wrap;html=1;" vertex="1" parent="vubs-H2cISsxrIheDBED-1">
          <mxGeometry x="320" y="520" width="260" height="130" as="geometry" />
        </mxCell>
        <mxCell id="vubs-H2cISsxrIheDBED-25" value="Equipment hire" style="rounded=1;whiteSpace=wrap;html=1;" vertex="1" parent="vubs-H2cISsxrIheDBED-1">
          <mxGeometry x="610" y="520" width="260" height="130" as="geometry" />
        </mxCell>
        <mxCell id="vubs-H2cISsxrIheDBED-26" value="Student_ID" style="text;html=1;align=center;verticalAlign=middle;whiteSpace=wrap;rounded=0;" vertex="1" parent="vubs-H2cISsxrIheDBED-1">
          <mxGeometry x="880" y="110" width="110" height="30" as="geometry" />
        </mxCell>
      </root>
    </mxGraphModel>
  </diagram>
  <diagram id="84-VK_t10keK44tuU_Mw" name="Enrolment">
    <mxGraphModel dx="1666" dy="747" grid="1" gridSize="10" guides="1" tooltips="1" connect="1" arrows="1" fold="1" page="1" pageScale="1" pageWidth="827" pageHeight="1169" math="0" shadow="0">
      <root>
        <mxCell id="0" />
        <mxCell id="1" parent="0" />
        <mxCell id="BVzmgQ_-JaUfaH0Mu-Ih-1" value="" style="strokeWidth=1;shadow=0;dashed=0;align=center;html=1;shape=mxgraph.mockup.containers.browserWindow;rSize=0;strokeColor=#666666;mainText=,;recursiveResize=0;rounded=0;labelBackgroundColor=none;fontFamily=Verdana;fontSize=12" vertex="1" parent="1">
          <mxGeometry x="30" y="20" width="1050" height="820" as="geometry" />
        </mxCell>
        <mxCell id="BVzmgQ_-JaUfaH0Mu-Ih-2" value="Home" style="strokeWidth=1;shadow=0;dashed=0;align=center;html=1;shape=mxgraph.mockup.containers.anchor;fontSize=17;fontColor=#666666;align=left;" vertex="1" parent="BVzmgQ_-JaUfaH0Mu-Ih-1">
          <mxGeometry x="60" y="12" width="110" height="26" as="geometry" />
        </mxCell>
        <mxCell id="BVzmgQ_-JaUfaH0Mu-Ih-3" value="https://www.default.com/enrolment" style="strokeWidth=1;shadow=0;dashed=0;align=center;html=1;shape=mxgraph.mockup.containers.anchor;rSize=0;fontSize=17;fontColor=#666666;align=left;" vertex="1" parent="BVzmgQ_-JaUfaH0Mu-Ih-1">
          <mxGeometry x="130" y="60" width="250" height="26" as="geometry" />
        </mxCell>
        <mxCell id="BVzmgQ_-JaUfaH0Mu-Ih-4" value="Student enrolment page" style="text;html=1;points=[];align=left;verticalAlign=top;spacingTop=-4;fontSize=30;fontFamily=Verdana" vertex="1" parent="BVzmgQ_-JaUfaH0Mu-Ih-1">
          <mxGeometry x="30" y="140" width="340" height="50" as="geometry" />
        </mxCell>
        <mxCell id="BVzmgQ_-JaUfaH0Mu-Ih-5" value="" style="verticalLabelPosition=bottom;shadow=0;dashed=0;align=center;html=1;verticalAlign=top;strokeWidth=1;shape=mxgraph.mockup.markup.line;strokeColor=#999999;rounded=0;labelBackgroundColor=none;fillColor=#ffffff;fontFamily=Verdana;fontSize=12;fontColor=#000000;" vertex="1" parent="BVzmgQ_-JaUfaH0Mu-Ih-1">
          <mxGeometry y="200" width="1050" height="20" as="geometry" />
        </mxCell>
        <mxCell id="BVzmgQ_-JaUfaH0Mu-Ih-6" value="" style="verticalLabelPosition=bottom;shadow=0;dashed=0;align=center;html=1;verticalAlign=top;strokeWidth=1;shape=mxgraph.mockup.containers.userMale;strokeColor=#666666;strokeColor2=#008cff;" vertex="1" parent="BVzmgQ_-JaUfaH0Mu-Ih-1">
          <mxGeometry x="990" y="110" width="60" height="50" as="geometry" />
        </mxCell>
        <mxCell id="BVzmgQ_-JaUfaH0Mu-Ih-13" value="Student_ID" style="text;html=1;align=center;verticalAlign=middle;whiteSpace=wrap;rounded=0;" vertex="1" parent="BVzmgQ_-JaUfaH0Mu-Ih-1">
          <mxGeometry x="880" y="110" width="110" height="30" as="geometry" />
        </mxCell>
        <mxCell id="BVzmgQ_-JaUfaH0Mu-Ih-15" value="Course" style="swimlane;strokeColor=#999999;swimlaneFillColor=#FFFFFF;fillColor=#ffffff;fontColor=#008CFF;fontStyle=0;childLayout=stackLayout;horizontal=1;startSize=30;horizontalStack=0;resizeParent=1;resizeParentMax=0;resizeLast=0;collapsible=0;marginBottom=0;whiteSpace=wrap;html=1;fontSize=17;" vertex="1" parent="BVzmgQ_-JaUfaH0Mu-Ih-1">
          <mxGeometry x="40" y="270" width="170" height="90" as="geometry" />
        </mxCell>
        <mxCell id="BVzmgQ_-JaUfaH0Mu-Ih-16" value="Computer Science" style="text;spacing=0;strokeColor=none;align=left;verticalAlign=middle;spacingLeft=7;spacingRight=10;overflow=hidden;points=[[0,0.5],[1,0.5]];portConstraint=eastwest;rotatable=0;whiteSpace=wrap;html=1;fillColor=none;fontColor=#666666;fontSize=17;" vertex="1" parent="BVzmgQ_-JaUfaH0Mu-Ih-15">
          <mxGeometry y="30" width="170" height="20" as="geometry" />
        </mxCell>
        <mxCell id="BVzmgQ_-JaUfaH0Mu-Ih-17" value="Cyber Security" style="text;spacing=0;strokeColor=none;align=left;verticalAlign=middle;spacingLeft=7;spacingRight=10;overflow=hidden;points=[[0,0.5],[1,0.5]];portConstraint=eastwest;rotatable=0;whiteSpace=wrap;html=1;rSize=5;fillColor=none;fontColor=#666666;fontSize=17;" vertex="1" parent="BVzmgQ_-JaUfaH0Mu-Ih-15">
          <mxGeometry y="50" width="170" height="20" as="geometry" />
        </mxCell>
        <mxCell id="BVzmgQ_-JaUfaH0Mu-Ih-18" value="Cyber Forensics" style="text;spacing=0;strokeColor=none;align=left;verticalAlign=middle;spacingLeft=7;spacingRight=10;overflow=hidden;points=[[0,0.5],[1,0.5]];portConstraint=eastwest;rotatable=0;whiteSpace=wrap;html=1;rSize=5;fillColor=#DDEEFF;fontColor=#666666;fontSize=17;" vertex="1" parent="BVzmgQ_-JaUfaH0Mu-Ih-15">
          <mxGeometry y="70" width="170" height="20" as="geometry" />
        </mxCell>
      </root>
    </mxGraphModel>
  </diagram>
  <diagram id="dm4zIHnkAe96Z-n64KG3" name="Module Registration">
    <mxGraphModel dx="1666" dy="747" grid="1" gridSize="10" guides="1" tooltips="1" connect="1" arrows="1" fold="1" page="1" pageScale="1" pageWidth="827" pageHeight="1169" math="0" shadow="0">
      <root>
        <mxCell id="0" />
        <mxCell id="1" parent="0" />
        <mxCell id="9WIS9DAFQE4-J6lnMf9j-1" value="" style="strokeWidth=1;shadow=0;dashed=0;align=center;html=1;shape=mxgraph.mockup.containers.browserWindow;rSize=0;strokeColor=#666666;mainText=,;recursiveResize=0;rounded=0;labelBackgroundColor=none;fontFamily=Verdana;fontSize=12" vertex="1" parent="1">
          <mxGeometry x="20" y="30" width="1050" height="820" as="geometry" />
        </mxCell>
        <mxCell id="9WIS9DAFQE4-J6lnMf9j-2" value="Home" style="strokeWidth=1;shadow=0;dashed=0;align=center;html=1;shape=mxgraph.mockup.containers.anchor;fontSize=17;fontColor=#666666;align=left;" vertex="1" parent="9WIS9DAFQE4-J6lnMf9j-1">
          <mxGeometry x="60" y="12" width="110" height="26" as="geometry" />
        </mxCell>
        <mxCell id="9WIS9DAFQE4-J6lnMf9j-3" value="https://www.default.com/Module_reg" style="strokeWidth=1;shadow=0;dashed=0;align=center;html=1;shape=mxgraph.mockup.containers.anchor;rSize=0;fontSize=17;fontColor=#666666;align=left;" vertex="1" parent="9WIS9DAFQE4-J6lnMf9j-1">
          <mxGeometry x="130" y="60" width="250" height="26" as="geometry" />
        </mxCell>
        <mxCell id="9WIS9DAFQE4-J6lnMf9j-4" value="Module Registration page" style="text;html=1;points=[];align=left;verticalAlign=top;spacingTop=-4;fontSize=30;fontFamily=Verdana" vertex="1" parent="9WIS9DAFQE4-J6lnMf9j-1">
          <mxGeometry x="30" y="140" width="400" height="50" as="geometry" />
        </mxCell>
        <mxCell id="9WIS9DAFQE4-J6lnMf9j-5" value="" style="verticalLabelPosition=bottom;shadow=0;dashed=0;align=center;html=1;verticalAlign=top;strokeWidth=1;shape=mxgraph.mockup.markup.line;strokeColor=#999999;rounded=0;labelBackgroundColor=none;fillColor=#ffffff;fontFamily=Verdana;fontSize=12;fontColor=#000000;" vertex="1" parent="9WIS9DAFQE4-J6lnMf9j-1">
          <mxGeometry y="200" width="1050" height="20" as="geometry" />
        </mxCell>
        <mxCell id="9WIS9DAFQE4-J6lnMf9j-6" value="" style="verticalLabelPosition=bottom;shadow=0;dashed=0;align=center;html=1;verticalAlign=top;strokeWidth=1;shape=mxgraph.mockup.containers.userMale;strokeColor=#666666;strokeColor2=#008cff;" vertex="1" parent="9WIS9DAFQE4-J6lnMf9j-1">
          <mxGeometry x="990" y="110" width="60" height="50" as="geometry" />
        </mxCell>
        <mxCell id="9WIS9DAFQE4-J6lnMf9j-7" value="Student_ID" style="text;html=1;align=center;verticalAlign=middle;whiteSpace=wrap;rounded=0;" vertex="1" parent="9WIS9DAFQE4-J6lnMf9j-1">
          <mxGeometry x="880" y="110" width="110" height="30" as="geometry" />
        </mxCell>
        <mxCell id="9WIS9DAFQE4-J6lnMf9j-8" value="Module Selection" style="swimlane;strokeColor=#999999;swimlaneFillColor=#FFFFFF;fillColor=#ffffff;fontColor=#008CFF;fontStyle=0;childLayout=stackLayout;horizontal=1;startSize=30;horizontalStack=0;resizeParent=1;resizeParentMax=0;resizeLast=0;collapsible=0;marginBottom=0;whiteSpace=wrap;html=1;fontSize=17;" vertex="1" parent="9WIS9DAFQE4-J6lnMf9j-1">
          <mxGeometry x="40" y="270" width="310" height="170" as="geometry" />
        </mxCell>
        <mxCell id="9WIS9DAFQE4-J6lnMf9j-9" value="Object Oriented Programming" style="text;spacing=0;strokeColor=none;align=left;verticalAlign=middle;spacingLeft=7;spacingRight=10;overflow=hidden;points=[[0,0.5],[1,0.5]];portConstraint=eastwest;rotatable=0;whiteSpace=wrap;html=1;fillColor=none;fontColor=#666666;fontSize=17;" vertex="1" parent="9WIS9DAFQE4-J6lnMf9j-8">
          <mxGeometry y="30" width="310" height="20" as="geometry" />
        </mxCell>
        <mxCell id="9WIS9DAFQE4-J6lnMf9j-10" value="Cyber Security Fundamentals" style="text;spacing=0;strokeColor=none;align=left;verticalAlign=middle;spacingLeft=7;spacingRight=10;overflow=hidden;points=[[0,0.5],[1,0.5]];portConstraint=eastwest;rotatable=0;whiteSpace=wrap;html=1;rSize=5;fillColor=none;fontColor=#666666;fontSize=17;" vertex="1" parent="9WIS9DAFQE4-J6lnMf9j-8">
          <mxGeometry y="50" width="310" height="20" as="geometry" />
        </mxCell>
        <mxCell id="9WIS9DAFQE4-J6lnMf9j-11" value="Maths for Computer Science" style="text;spacing=0;strokeColor=none;align=left;verticalAlign=middle;spacingLeft=7;spacingRight=10;overflow=hidden;points=[[0,0.5],[1,0.5]];portConstraint=eastwest;rotatable=0;whiteSpace=wrap;html=1;rSize=5;fillColor=#DDEEFF;fontColor=#666666;fontSize=17;" vertex="1" parent="9WIS9DAFQE4-J6lnMf9j-8">
          <mxGeometry y="70" width="310" height="20" as="geometry" />
        </mxCell>
        <mxCell id="9WIS9DAFQE4-J6lnMf9j-18" value="Module 4" style="text;spacing=0;strokeColor=none;align=left;verticalAlign=middle;spacingLeft=7;spacingRight=10;overflow=hidden;points=[[0,0.5],[1,0.5]];portConstraint=eastwest;rotatable=0;whiteSpace=wrap;html=1;rSize=5;fillColor=#DDEEFF;fontColor=#666666;fontSize=17;" vertex="1" parent="9WIS9DAFQE4-J6lnMf9j-8">
          <mxGeometry y="90" width="310" height="20" as="geometry" />
        </mxCell>
        <mxCell id="9WIS9DAFQE4-J6lnMf9j-19" value="Module 5" style="text;spacing=0;strokeColor=none;align=left;verticalAlign=middle;spacingLeft=7;spacingRight=10;overflow=hidden;points=[[0,0.5],[1,0.5]];portConstraint=eastwest;rotatable=0;whiteSpace=wrap;html=1;rSize=5;fillColor=#DDEEFF;fontColor=#666666;fontSize=17;" vertex="1" parent="9WIS9DAFQE4-J6lnMf9j-8">
          <mxGeometry y="110" width="310" height="20" as="geometry" />
        </mxCell>
        <mxCell id="9WIS9DAFQE4-J6lnMf9j-20" value="Module 6" style="text;spacing=0;strokeColor=none;align=left;verticalAlign=middle;spacingLeft=7;spacingRight=10;overflow=hidden;points=[[0,0.5],[1,0.5]];portConstraint=eastwest;rotatable=0;whiteSpace=wrap;html=1;rSize=5;fillColor=#DDEEFF;fontColor=#666666;fontSize=17;" vertex="1" parent="9WIS9DAFQE4-J6lnMf9j-8">
          <mxGeometry y="130" width="310" height="20" as="geometry" />
        </mxCell>
        <mxCell id="9WIS9DAFQE4-J6lnMf9j-21" value="Module 7" style="text;spacing=0;strokeColor=none;align=left;verticalAlign=middle;spacingLeft=7;spacingRight=10;overflow=hidden;points=[[0,0.5],[1,0.5]];portConstraint=eastwest;rotatable=0;whiteSpace=wrap;html=1;rSize=5;fillColor=#DDEEFF;fontColor=#666666;fontSize=17;" vertex="1" parent="9WIS9DAFQE4-J6lnMf9j-8">
          <mxGeometry y="150" width="310" height="20" as="geometry" />
        </mxCell>
        <mxCell id="9WIS9DAFQE4-J6lnMf9j-12" value="Course_Name" style="text;html=1;align=center;verticalAlign=middle;whiteSpace=wrap;rounded=0;" vertex="1" parent="9WIS9DAFQE4-J6lnMf9j-1">
          <mxGeometry x="40" y="220" width="100" height="30" as="geometry" />
        </mxCell>
        <mxCell id="9WIS9DAFQE4-J6lnMf9j-13" value="Selected Modules" style="swimlane;strokeColor=#999999;swimlaneFillColor=#FFFFFF;fillColor=#ffffff;fontColor=#008CFF;fontStyle=0;childLayout=stackLayout;horizontal=1;startSize=30;horizontalStack=0;resizeParent=1;resizeParentMax=0;resizeLast=0;collapsible=0;marginBottom=0;whiteSpace=wrap;html=1;fontSize=17;" vertex="1" parent="9WIS9DAFQE4-J6lnMf9j-1">
          <mxGeometry x="660" y="270" width="310" height="50" as="geometry" />
        </mxCell>
        <mxCell id="9WIS9DAFQE4-J6lnMf9j-14" value="Object Oriented Programming" style="text;spacing=0;strokeColor=none;align=left;verticalAlign=middle;spacingLeft=7;spacingRight=10;overflow=hidden;points=[[0,0.5],[1,0.5]];portConstraint=eastwest;rotatable=0;whiteSpace=wrap;html=1;fillColor=none;fontColor=#666666;fontSize=17;" vertex="1" parent="9WIS9DAFQE4-J6lnMf9j-13">
          <mxGeometry y="30" width="310" height="20" as="geometry" />
        </mxCell>
        <mxCell id="9WIS9DAFQE4-J6lnMf9j-17" value="&lt;div&gt;Current CATS: 15&lt;/div&gt;Required CATs: 120" style="rounded=0;whiteSpace=wrap;html=1;align=left;" vertex="1" parent="9WIS9DAFQE4-J6lnMf9j-1">
          <mxGeometry x="40" y="680" width="120" height="60" as="geometry" />
        </mxCell>
      </root>
    </mxGraphModel>
  </diagram>
  <diagram id="1vidkpo1wg4M3qe23LI-" name="Staff Home">
    <mxGraphModel dx="1666" dy="747" grid="1" gridSize="10" guides="1" tooltips="1" connect="1" arrows="1" fold="1" page="1" pageScale="1" pageWidth="827" pageHeight="1169" math="0" shadow="0">
      <root>
        <mxCell id="0" />
        <mxCell id="1" parent="0" />
        <mxCell id="Hb8Ee4vojK_faq9nH_4X-1" value="" style="strokeWidth=1;shadow=0;dashed=0;align=center;html=1;shape=mxgraph.mockup.containers.browserWindow;rSize=0;strokeColor=#666666;mainText=,;recursiveResize=0;rounded=0;labelBackgroundColor=none;fontFamily=Verdana;fontSize=12" vertex="1" parent="1">
          <mxGeometry x="30" y="20" width="1050" height="820" as="geometry" />
        </mxCell>
        <mxCell id="Hb8Ee4vojK_faq9nH_4X-2" value="Home" style="strokeWidth=1;shadow=0;dashed=0;align=center;html=1;shape=mxgraph.mockup.containers.anchor;fontSize=17;fontColor=#666666;align=left;" vertex="1" parent="Hb8Ee4vojK_faq9nH_4X-1">
          <mxGeometry x="60" y="12" width="110" height="26" as="geometry" />
        </mxCell>
        <mxCell id="Hb8Ee4vojK_faq9nH_4X-3" value="https://www.default.com/home" style="strokeWidth=1;shadow=0;dashed=0;align=center;html=1;shape=mxgraph.mockup.containers.anchor;rSize=0;fontSize=17;fontColor=#666666;align=left;" vertex="1" parent="Hb8Ee4vojK_faq9nH_4X-1">
          <mxGeometry x="130" y="60" width="250" height="26" as="geometry" />
        </mxCell>
        <mxCell id="Hb8Ee4vojK_faq9nH_4X-4" value="Staff Home Page" style="text;html=1;points=[];align=left;verticalAlign=top;spacingTop=-4;fontSize=30;fontFamily=Verdana" vertex="1" parent="Hb8Ee4vojK_faq9nH_4X-1">
          <mxGeometry x="30" y="140" width="340" height="50" as="geometry" />
        </mxCell>
        <mxCell id="Hb8Ee4vojK_faq9nH_4X-5" value="" style="verticalLabelPosition=bottom;shadow=0;dashed=0;align=center;html=1;verticalAlign=top;strokeWidth=1;shape=mxgraph.mockup.markup.line;strokeColor=#999999;rounded=0;labelBackgroundColor=none;fillColor=#ffffff;fontFamily=Verdana;fontSize=12;fontColor=#000000;" vertex="1" parent="Hb8Ee4vojK_faq9nH_4X-1">
          <mxGeometry y="200" width="1050" height="20" as="geometry" />
        </mxCell>
        <mxCell id="Hb8Ee4vojK_faq9nH_4X-6" value="" style="verticalLabelPosition=bottom;shadow=0;dashed=0;align=center;html=1;verticalAlign=top;strokeWidth=1;shape=mxgraph.mockup.containers.userMale;strokeColor=#666666;strokeColor2=#008cff;" vertex="1" parent="Hb8Ee4vojK_faq9nH_4X-1">
          <mxGeometry x="990" y="110" width="60" height="50" as="geometry" />
        </mxCell>
        <mxCell id="Hb8Ee4vojK_faq9nH_4X-7" value="Module Result Entry" style="rounded=1;whiteSpace=wrap;html=1;" vertex="1" parent="Hb8Ee4vojK_faq9nH_4X-1">
          <mxGeometry x="30" y="330" width="260" height="150" as="geometry" />
        </mxCell>
        <mxCell id="Hb8Ee4vojK_faq9nH_4X-8" value="Student Results" style="rounded=1;whiteSpace=wrap;html=1;" vertex="1" parent="Hb8Ee4vojK_faq9nH_4X-1">
          <mxGeometry x="320" y="330" width="260" height="150" as="geometry" />
        </mxCell>
        <mxCell id="Hb8Ee4vojK_faq9nH_4X-9" value="Courses" style="rounded=1;whiteSpace=wrap;html=1;" vertex="1" parent="Hb8Ee4vojK_faq9nH_4X-1">
          <mxGeometry x="610" y="330" width="260" height="150" as="geometry" />
        </mxCell>
        <mxCell id="Hb8Ee4vojK_faq9nH_4X-10" value="Timetable" style="rounded=1;whiteSpace=wrap;html=1;" vertex="1" parent="Hb8Ee4vojK_faq9nH_4X-1">
          <mxGeometry x="30" y="520" width="260" height="130" as="geometry" />
        </mxCell>
        <mxCell id="Hb8Ee4vojK_faq9nH_4X-11" value="Help Zone" style="rounded=1;whiteSpace=wrap;html=1;" vertex="1" parent="Hb8Ee4vojK_faq9nH_4X-1">
          <mxGeometry x="320" y="520" width="260" height="130" as="geometry" />
        </mxCell>
        <mxCell id="Hb8Ee4vojK_faq9nH_4X-12" value="Equipment hire" style="rounded=1;whiteSpace=wrap;html=1;" vertex="1" parent="Hb8Ee4vojK_faq9nH_4X-1">
          <mxGeometry x="610" y="520" width="260" height="130" as="geometry" />
        </mxCell>
        <mxCell id="Hb8Ee4vojK_faq9nH_4X-13" value="Staff_ID" style="text;html=1;align=center;verticalAlign=middle;whiteSpace=wrap;rounded=0;" vertex="1" parent="Hb8Ee4vojK_faq9nH_4X-1">
          <mxGeometry x="880" y="110" width="110" height="30" as="geometry" />
        </mxCell>
      </root>
    </mxGraphModel>
  </diagram>
  <diagram id="hoOPRxWGPf-av5oFqziP" name="Admin Home">
    <mxGraphModel dx="1666" dy="747" grid="1" gridSize="10" guides="1" tooltips="1" connect="1" arrows="1" fold="1" page="1" pageScale="1" pageWidth="827" pageHeight="1169" math="0" shadow="0">
      <root>
        <mxCell id="0" />
        <mxCell id="1" parent="0" />
        <mxCell id="JCTcN2gJSeRL-f814OXr-1" value="" style="strokeWidth=1;shadow=0;dashed=0;align=center;html=1;shape=mxgraph.mockup.containers.browserWindow;rSize=0;strokeColor=#666666;mainText=,;recursiveResize=0;rounded=0;labelBackgroundColor=none;fontFamily=Verdana;fontSize=12" vertex="1" parent="1">
          <mxGeometry x="30" y="20" width="1050" height="820" as="geometry" />
        </mxCell>
        <mxCell id="JCTcN2gJSeRL-f814OXr-2" value="Home" style="strokeWidth=1;shadow=0;dashed=0;align=center;html=1;shape=mxgraph.mockup.containers.anchor;fontSize=17;fontColor=#666666;align=left;" vertex="1" parent="JCTcN2gJSeRL-f814OXr-1">
          <mxGeometry x="60" y="12" width="110" height="26" as="geometry" />
        </mxCell>
        <mxCell id="JCTcN2gJSeRL-f814OXr-3" value="https://www.default.com/admin" style="strokeWidth=1;shadow=0;dashed=0;align=center;html=1;shape=mxgraph.mockup.containers.anchor;rSize=0;fontSize=17;fontColor=#666666;align=left;" vertex="1" parent="JCTcN2gJSeRL-f814OXr-1">
          <mxGeometry x="130" y="60" width="250" height="26" as="geometry" />
        </mxCell>
        <mxCell id="JCTcN2gJSeRL-f814OXr-4" value="Admin Home Page" style="text;html=1;points=[];align=left;verticalAlign=top;spacingTop=-4;fontSize=30;fontFamily=Verdana" vertex="1" parent="JCTcN2gJSeRL-f814OXr-1">
          <mxGeometry x="30" y="140" width="340" height="50" as="geometry" />
        </mxCell>
        <mxCell id="JCTcN2gJSeRL-f814OXr-5" value="" style="verticalLabelPosition=bottom;shadow=0;dashed=0;align=center;html=1;verticalAlign=top;strokeWidth=1;shape=mxgraph.mockup.markup.line;strokeColor=#999999;rounded=0;labelBackgroundColor=none;fillColor=#ffffff;fontFamily=Verdana;fontSize=12;fontColor=#000000;" vertex="1" parent="JCTcN2gJSeRL-f814OXr-1">
          <mxGeometry y="200" width="1050" height="20" as="geometry" />
        </mxCell>
        <mxCell id="JCTcN2gJSeRL-f814OXr-6" value="" style="verticalLabelPosition=bottom;shadow=0;dashed=0;align=center;html=1;verticalAlign=top;strokeWidth=1;shape=mxgraph.mockup.containers.userMale;strokeColor=#666666;strokeColor2=#008cff;" vertex="1" parent="JCTcN2gJSeRL-f814OXr-1">
          <mxGeometry x="990" y="110" width="60" height="50" as="geometry" />
        </mxCell>
        <mxCell id="JCTcN2gJSeRL-f814OXr-7" value="View all users" style="rounded=1;whiteSpace=wrap;html=1;" vertex="1" parent="JCTcN2gJSeRL-f814OXr-1">
          <mxGeometry x="30" y="330" width="260" height="150" as="geometry" />
        </mxCell>
        <mxCell id="JCTcN2gJSeRL-f814OXr-8" value="Add new users" style="rounded=1;whiteSpace=wrap;html=1;" vertex="1" parent="JCTcN2gJSeRL-f814OXr-1">
          <mxGeometry x="320" y="330" width="260" height="150" as="geometry" />
        </mxCell>
        <mxCell id="JCTcN2gJSeRL-f814OXr-9" value="Remove users" style="rounded=1;whiteSpace=wrap;html=1;" vertex="1" parent="JCTcN2gJSeRL-f814OXr-1">
          <mxGeometry x="610" y="330" width="260" height="150" as="geometry" />
        </mxCell>
        <mxCell id="JCTcN2gJSeRL-f814OXr-13" value="Admin_ID" style="text;html=1;align=center;verticalAlign=middle;whiteSpace=wrap;rounded=0;" vertex="1" parent="JCTcN2gJSeRL-f814OXr-1">
          <mxGeometry x="880" y="110" width="110" height="30" as="geometry" />
        </mxCell>
      </root>
    </mxGraphModel>
  </diagram>
</mxfile>
